<?xml version="1.0"?>
<svg xmlns="http://www.w3.org/2000/svg" viewBox="0 0 512 512" width="512" height="512">
  <g id="Solid">
    <path fill="#C5C5C5" fill-rule="evenodd" d="M256,352c-3.252,9.918-14.97,18.725-32.711,24.246-45.054,14.02-72.928,34.02-78.326,55.754H367.037c-5.4-21.734-33.272-41.734-78.326-55.754C270.97,370.725,259.252,361.918,256,352Z"/>
    <path fill="#C5C5C5" fill-rule="evenodd" d="M160.1,128c13.43,25.58,34.93,48.48,63.19,66.55A72.525,72.525,0,0,1,256,244.36a72.525,72.525,0,0,1,32.71-49.81c28.26-18.07,49.76-40.97,63.19-66.55Z"/>
    <path fill="#C5C5C5" fill-rule="evenodd" d="M305.949,221.507C363.206,184.9,400,127.959,400,64h0a16,16,0,0,0,16-16V24H96V47a16.985,16.985,0,0,0,16,16.949V64c0,63.959,36.794,120.9,94.051,157.507,25.159,16.086,25.159,52.9,0,68.986C148.794,327.1,112,384.041,112,448v.051A16.985,16.985,0,0,0,96,465v23H416V464a16,16,0,0,0-16-16h0c0-63.959-36.794-120.9-94.051-157.507C280.79,274.407,280.79,237.593,305.949,221.507ZM271.08,256a56.68,56.68,0,0,0,26.25,47.973C352.41,339.188,384,391.685,384,448H128c0-56.315,31.59-108.812,86.67-144.027a56.961,56.961,0,0,0,0-95.946C159.59,172.812,128,120.315,128,64H384c0,56.315-31.59,108.812-86.67,144.027A56.68,56.68,0,0,0,271.08,256Z"/>
    <path fill="#C5C5C5" fill-rule="evenodd" d="M256,287.487a7.5,7.5,0,0,0,7.5-7.5V272a7.5,7.5,0,0,0-15,0v7.987A7.5,7.5,0,0,0,256,287.487Z"/>
    <path fill="#C5C5C5" fill-rule="evenodd" d="M248.5,319.987a7.5,7.5,0,1,0,15,0V312a7.5,7.5,0,0,0-15,0Z"/>
  </g>
  </svg>
